<?xml version="1.0" encoding="utf-8"?>
<!-- Generator: Adobe Illustrator 23.0.0, SVG Export Plug-In . SVG Version: 6.00 Build 0)  -->
<svg version="1.1" id="Layer_1" xmlns="http://www.w3.org/2000/svg" xmlns:xlink="http://www.w3.org/1999/xlink" x="0px" y="0px"
	 viewBox="0 0 230 70" style="enable-background:new 0 0 230 70;" xml:space="preserve">
<style type="text/css">
	.st0{fill:#FFFFFF;}
	.st1{fill:#333333;}
	.st2{fill:#F16622;}
</style>
<path class="st0" d="M2.5,33.78c0,13.01,10.55,23.57,23.57,23.57s23.57-10.55,23.57-23.57c0-13.02-10.55-23.57-23.57-23.57
	S2.5,20.76,2.5,33.78"/>
<polygon class="st1" points="49.63,18.97 47.07,23.42 41.52,33.02 36.39,33.02 41.94,23.42 33.69,23.42 28.04,33.19 28.01,33.25 
	27.58,34 40.96,34 38.39,38.44 37.93,39.25 34.7,44.84 32.13,49.28 29.57,44.84 26.46,39.45 31.59,39.45 32.13,40.4 32.8,39.25 
	33.26,38.44 25.87,38.44 25.44,37.7 23.31,34 31.71,18.97 "/>
<polygon class="st2" points="31.56,50.28 29.1,54.53 28.63,55.35 26.07,59.79 23.5,55.35 19.38,48.2 16.81,43.76 16.81,43.76 
	16.35,42.95 14.21,39.25 13.78,38.51 13.74,38.44 11.18,34 10.71,33.19 5.07,23.42 2.5,18.97 30.5,18.97 27.94,23.42 10.2,23.42 
	15.84,33.19 16.31,34 22.08,34 24.65,38.44 18.87,38.44 18.91,38.51 19.34,39.25 19.38,39.32 21.94,43.76 26.07,50.91 26.54,50.09 
	28.99,45.84 "/>
<g>
	<polygon class="st0" points="56.82,32.94 67.98,32.94 67.98,30.23 56.82,30.23 56.82,21.7 68.86,21.7 68.86,18.99 54,18.99 
		54,44.39 69.03,44.39 69.03,41.67 56.82,41.67 	"/>
	<path class="st0" d="M87.25,28.82c-1.69-2.07-4.17-3.24-7.02-3.24c-5.34,0-9.52,4.21-9.52,9.59c0,5.38,4.18,9.59,9.52,9.59
		c2.84,0,5.33-1.16,7.02-3.24v2.85H90V25.97h-2.75V28.82z M80.38,42.13c-3.88,0-6.91-3.05-6.91-6.95c0-3.9,3.04-6.95,6.91-6.95
		c3.86,0,6.88,3.05,6.88,6.95C87.25,39.07,84.23,42.13,80.38,42.13"/>
	<path class="st0" d="M100.87,33.91c-2.68-0.69-4.31-1.22-4.31-2.88c0-1.93,1.86-2.79,3.7-2.79c1.92,0,3.42,0.88,4.02,2.35
		l0.21,0.52l2.33-1.33l-0.18-0.4c-1.05-2.37-3.43-3.78-6.38-3.78c-3.72,0-6.42,2.29-6.42,5.44c0,3.74,3.3,4.59,6.2,5.34
		c2.72,0.7,4.37,1.25,4.37,2.96c0,2.06-2.16,2.79-4.02,2.79c-2.35,0-4.1-1.02-4.67-2.74l-0.19-0.57l-2.37,1.38l0.14,0.38
		c0.98,2.62,3.63,4.19,7.08,4.19c3.96,0,6.73-2.24,6.73-5.44C107.14,35.51,103.66,34.62,100.87,33.91"/>
	<path class="st0" d="M122.44,25.97l-5.77,14.77l-6.7-14.77h-2.95l8.25,18.26l-0.3,0.74c-0.64,1.52-2.11,4.02-4.71,3.79l-0.53-0.05
		v2.62l0.45,0.04c0.16,0.01,0.32,0.02,0.48,0.02c2.89,0,5.51-2.14,6.92-5.7l7.8-19.72H122.44z"/>
	<path class="st0" d="M135,30.11L135,30.11c-3.49-1.15-5.63-1.99-5.63-4.53c0-2.53,2.02-4.23,5.03-4.23c3.48,0,5.09,2.13,5.83,3.92
		l0.21,0.5l2.43-1.35l-0.17-0.4c-1.43-3.4-4.53-5.43-8.3-5.43c-4.64,0-7.88,2.9-7.88,7.05c0,4.57,3.87,5.83,7.97,7.16l0.11,0.04
		c4.05,1.29,5.98,2.33,5.98,4.77c0,2.76-2.11,4.4-5.66,4.4c-3.58,0-6.02-1.62-6.86-4.57l-0.17-0.6l-2.48,1.46l0.12,0.37
		c1.23,3.82,4.75,6.09,9.4,6.09c5.09,0,8.51-2.89,8.51-7.19C143.43,32.9,139.15,31.48,135,30.11"/>
	<path class="st0" d="M155.13,25.58c-2.43,0-4.39,0.88-5.76,2.55v-9.15h-2.72v25.4h2.72v-9.7c0-4.04,2.1-6.46,5.62-6.46
		c2.91,0,4.64,1.8,4.64,4.82v11.34h2.75V33.05C162.38,28.51,159.53,25.58,155.13,25.58"/>
	<path class="st0" d="M174.67,25.58c-2.69,0-5.13,0.99-6.87,2.78c-1.71,1.76-2.65,4.18-2.65,6.82c0,5.56,4.06,9.59,9.66,9.59
		c3.5,0,6.42-1.52,8.02-4.18l0.25-0.42l-2.39-1.41l-0.24,0.44c-1,1.83-3.1,2.92-5.61,2.92c-3.56,0-6.25-2.21-6.84-5.56h15.74v-0.49
		c0-0.12,0.01-0.25,0.02-0.39c0.01-0.14,0.02-0.29,0.02-0.45C183.77,30.56,180.58,25.58,174.67,25.58 M174.67,28.23
		c3.28,0,5.74,2.25,6.26,5.66h-12.93C168.53,30.48,171.15,28.23,174.67,28.23"/>
	<path class="st0" d="M196.62,25.58c-2.87,0-5.35,1.18-7.02,3.29v-9.88h-2.72v25.4h2.72v-2.9c1.67,2.11,4.15,3.29,7.02,3.29
		c5.34,0,9.52-4.21,9.52-9.59C206.14,29.8,201.96,25.58,196.62,25.58 M196.51,28.23c3.88,0,6.91,3.05,6.91,6.95
		s-3.04,6.95-6.91,6.95c-3.88,0-6.91-3.05-6.91-6.95S192.64,28.23,196.51,28.23"/>
	<path class="st0" d="M224.75,25.97v2.85c-1.69-2.07-4.17-3.24-7.02-3.24c-5.34,0-9.52,4.21-9.52,9.59c0,5.38,4.18,9.59,9.52,9.59
		c2.84,0,5.33-1.16,7.02-3.24v2.85h2.75V25.97H224.75z M217.87,42.13c-3.88,0-6.91-3.05-6.91-6.95c0-3.9,3.04-6.95,6.91-6.95
		c3.86,0,6.88,3.05,6.88,6.95C224.75,39.07,221.73,42.13,217.87,42.13"/>
	<polygon class="st0" points="129.42,48.76 127.17,48.76 127.17,46.79 126.7,46.79 126.7,51.33 127.17,51.33 127.17,49.23 
		129.42,49.23 129.42,51.33 129.89,51.33 129.89,46.79 129.42,46.79 	"/>
	<path class="st0" d="M132.92,47.97c-0.93,0-1.61,0.72-1.61,1.71c0,0.99,0.69,1.71,1.63,1.71c0.59,0,1.09-0.27,1.36-0.75l0.04-0.07
		l-0.4-0.25l-0.04,0.08c-0.17,0.33-0.53,0.53-0.95,0.53c-0.61,0-1.07-0.4-1.16-1.01h2.67v-0.08c0-0.02,0-0.05,0-0.07
		c0-0.03,0-0.05,0-0.08C134.46,48.86,133.92,47.97,132.92,47.97 M132.92,48.43c0.56,0,0.98,0.41,1.06,1.03h-2.2
		C131.88,48.84,132.32,48.43,132.92,48.43"/>
	<path class="st0" d="M136.26,48.42v-0.39h-0.45v3.29h0.45v-1.82c0-0.78,0.47-1.05,0.91-1.05h0.08v-0.46h-0.08
		C136.78,47.99,136.47,48.14,136.26,48.42"/>
	<path class="st0" d="M139.73,47.97c-0.93,0-1.61,0.72-1.61,1.71c0,0.99,0.69,1.71,1.63,1.71c0.59,0,1.09-0.27,1.36-0.75l0.04-0.07
		l-0.4-0.25l-0.04,0.08c-0.17,0.33-0.53,0.53-0.95,0.53c-0.61,0-1.07-0.4-1.16-1.01h2.67v-0.08c0-0.02,0-0.05,0-0.07
		c0-0.03,0-0.05,0-0.08C141.27,48.86,140.73,47.97,139.73,47.97 M139.73,48.43c0.56,0,0.98,0.41,1.06,1.03h-2.2
		C138.68,48.84,139.13,48.43,139.73,48.43"/>
	<polygon class="st0" points="144.68,47.26 145.98,47.26 145.98,51.33 146.46,51.33 146.46,47.26 147.76,47.26 147.76,46.78 
		144.68,46.78 	"/>
	<path class="st0" d="M149.9,47.97c-0.92,0-1.63,0.75-1.63,1.71c0,0.96,0.72,1.71,1.63,1.71c0.91,0,1.63-0.75,1.63-1.71
		C151.53,48.72,150.82,47.97,149.9,47.97 M149.9,50.94c-0.66,0-1.17-0.55-1.17-1.25c0-0.7,0.52-1.25,1.17-1.25
		c0.66,0,1.17,0.55,1.17,1.25C151.07,50.39,150.56,50.94,149.9,50.94"/>
	<polygon class="st0" points="157.29,49.3 155.86,46.78 155.34,46.78 155.34,51.33 155.81,51.33 155.81,47.65 157.22,50.12 
		157.36,50.12 158.77,47.65 158.77,51.33 159.24,51.33 159.24,46.78 158.72,46.78 	"/>
	<path class="st0" d="M163.46,48.55c-0.29-0.37-0.71-0.58-1.19-0.58c-0.9,0-1.61,0.75-1.61,1.71c0,0.96,0.71,1.71,1.61,1.71
		c0.48,0,0.91-0.21,1.19-0.58v0.52h0.46v-3.29h-0.46V48.55z M163.46,49.68c0,0.7-0.51,1.25-1.17,1.25c-0.66,0-1.17-0.55-1.17-1.25
		c0-0.7,0.52-1.25,1.17-1.25C162.95,48.43,163.46,48.98,163.46,49.68"/>
	<polygon class="st0" points="167.97,48.04 167.33,48.04 165.94,49.35 165.94,46.78 165.49,46.78 165.49,51.33 165.94,51.33 
		165.94,49.9 167.4,51.33 168.02,51.33 166.29,49.62 	"/>
	<path class="st0" d="M170.27,47.97c-0.93,0-1.61,0.72-1.61,1.71c0,0.99,0.69,1.71,1.63,1.71c0.59,0,1.09-0.27,1.36-0.75l0.04-0.07
		l-0.4-0.25l-0.04,0.08c-0.17,0.33-0.53,0.53-0.95,0.53c-0.61,0-1.07-0.4-1.16-1.01h2.67v-0.08c0-0.02,0-0.05,0-0.07
		c0-0.03,0-0.05,0-0.08C171.81,48.86,171.27,47.97,170.27,47.97 M170.27,48.43c0.56,0,0.98,0.41,1.06,1.03h-2.2
		C169.22,48.84,169.67,48.43,170.27,48.43"/>
	<polygon class="st0" points="176.89,48.97 175.62,46.78 175.08,46.78 176.65,49.47 176.65,51.33 177.12,51.33 177.12,49.47 
		178.69,46.78 178.15,46.78 	"/>
	<path class="st0" d="M180.64,47.97c-0.92,0-1.63,0.75-1.63,1.71c0,0.96,0.72,1.71,1.63,1.71c0.91,0,1.63-0.75,1.63-1.71
		C182.26,48.72,181.55,47.97,180.64,47.97 M180.64,50.94c-0.66,0-1.17-0.55-1.17-1.25c0-0.7,0.52-1.25,1.17-1.25
		c0.65,0,1.17,0.55,1.17,1.25C181.8,50.39,181.29,50.94,180.64,50.94"/>
	<path class="st0" d="M185.75,49.77c0,0.73-0.36,1.17-0.96,1.17c-0.49,0-0.79-0.33-0.79-0.87v-2.03h-0.46v2.03
		c0,0.81,0.48,1.33,1.23,1.33c0.41,0,0.75-0.16,0.98-0.46v0.39h0.45v-3.29h-0.45V49.77z"/>
	<path class="st0" d="M188.22,48.42v-0.39h-0.45v3.29h0.45v-1.82c0-0.78,0.47-1.05,0.91-1.05h0.08v-0.46h-0.08
		C188.74,47.99,188.43,48.14,188.22,48.42"/>
	<polygon class="st0" points="193.38,46.78 192.91,46.78 192.91,51.33 195.33,51.33 195.33,50.85 193.38,50.85 	"/>
	<rect x="196.57" y="48.04" class="st0" width="0.45" height="3.29"/>
	<path class="st0" d="M196.8,46.78c-0.17,0-0.32,0.15-0.32,0.32c0,0.18,0.14,0.33,0.32,0.33c0.17,0,0.32-0.15,0.32-0.33
		C197.12,46.93,196.97,46.78,196.8,46.78"/>
	<path class="st0" d="M199.15,46.98c-0.23,0.21-0.35,0.55-0.35,0.97v0.09h-0.51v0.47h0.51v2.82h0.46V48.5h0.88v-0.47h-0.88v-0.09
		c0-0.29,0.07-0.5,0.2-0.63c0.13-0.12,0.33-0.17,0.59-0.14l0.09,0.01v-0.46l-0.07-0.01C199.68,46.69,199.38,46.77,199.15,46.98"/>
	<path class="st0" d="M202.46,47.97c-0.93,0-1.61,0.72-1.61,1.71c0,0.99,0.69,1.71,1.63,1.71c0.59,0,1.09-0.27,1.36-0.75l0.04-0.07
		l-0.4-0.25l-0.04,0.08c-0.17,0.33-0.53,0.53-0.95,0.53c-0.61,0-1.07-0.4-1.16-1.01H204v-0.08c0-0.02,0-0.05,0-0.07
		c0-0.03,0-0.05,0-0.08C204,48.86,203.46,47.97,202.46,47.97 M202.46,48.43c0.56,0,0.98,0.41,1.06,1.03h-2.2
		C201.42,48.84,201.86,48.43,202.46,48.43"/>
	<polygon class="st0" points="208.27,49.27 210.16,49.27 210.16,48.8 208.27,48.8 208.27,47.26 210.31,47.26 210.31,46.78 
		207.8,46.78 207.8,51.33 210.34,51.33 210.34,50.85 208.27,50.85 	"/>
	<path class="st0" d="M214.24,48.55c-0.29-0.37-0.71-0.58-1.19-0.58c-0.9,0-1.61,0.75-1.61,1.71c0,0.96,0.71,1.71,1.61,1.71
		c0.48,0,0.91-0.21,1.19-0.58v0.52h0.46v-3.29h-0.46V48.55z M214.24,49.68c0,0.7-0.51,1.25-1.17,1.25c-0.66,0-1.17-0.55-1.17-1.25
		c0-0.7,0.52-1.25,1.17-1.25C213.73,48.43,214.24,48.98,214.24,49.68"/>
	<path class="st0" d="M217.35,49.46c-0.46-0.12-0.73-0.22-0.73-0.52c0-0.35,0.32-0.51,0.63-0.51c0.33,0,0.58,0.16,0.68,0.42
		l0.03,0.09l0.39-0.23l-0.03-0.06c-0.18-0.42-0.58-0.67-1.08-0.67c-0.63,0-1.08,0.41-1.08,0.97c0,0.66,0.56,0.82,1.05,0.95
		c0.46,0.13,0.74,0.23,0.74,0.54c0,0.38-0.35,0.51-0.68,0.51c-0.4,0-0.7-0.19-0.79-0.5l-0.03-0.1l-0.4,0.24l0.02,0.06
		c0.17,0.47,0.61,0.75,1.2,0.75c0.67,0,1.14-0.4,1.14-0.97C218.41,49.75,217.83,49.59,217.35,49.46"/>
	<path class="st0" d="M219.98,46.78c-0.17,0-0.32,0.15-0.32,0.32c0,0.18,0.14,0.33,0.32,0.33c0.17,0,0.32-0.15,0.32-0.33
		C220.29,46.93,220.15,46.78,219.98,46.78"/>
	<rect x="219.75" y="48.04" class="st0" width="0.45" height="3.29"/>
	<path class="st0" d="M223.18,47.97c-0.93,0-1.61,0.72-1.61,1.71c0,0.99,0.69,1.71,1.63,1.71c0.59,0,1.09-0.27,1.36-0.75l0.04-0.07
		l-0.4-0.25l-0.04,0.08c-0.17,0.33-0.53,0.53-0.95,0.53c-0.61,0-1.07-0.4-1.16-1.01h2.67v-0.08c0-0.02,0-0.05,0-0.07
		c0-0.03,0-0.05,0-0.08C224.72,48.86,224.18,47.97,223.18,47.97 M223.18,48.43c0.56,0,0.98,0.41,1.06,1.03h-2.2
		C222.13,48.84,222.57,48.43,223.18,48.43"/>
	<path class="st0" d="M227.42,47.99c-0.39,0-0.7,0.15-0.91,0.43v-0.39h-0.45v3.29h0.45v-1.82c0-0.78,0.47-1.05,0.91-1.05h0.08v-0.46
		H227.42z"/>
</g>
</svg>
