<svg xmlns="http://www.w3.org/2000/svg" xmlns:xlink="http://www.w3.org/1999/xlink" width="42" height="42" viewBox="0 0 42 42">
    <defs>
        <rect id="a" width="42" height="42" rx="3.111"/>
    </defs>
    <g fill="none" fill-rule="evenodd">
        <g>
            <mask id="b" fill="#fff">
                <use xlink:href="#a"/>
            </mask>
            <use fill="#D8D8D8" xlink:href="#a"/>
            <g fill="#00A1BA" mask="url(#b)">
                <path d="M0 0h41.88v41.88H0z"/>
            </g>
        </g>
        <path fill="#FFF" d="M33.826 30.327a.972.972 0 1 0-1.904.396c.063.303-.012.613-.206.852a.988.988 0 0 1-.777.37H11.95a.988.988 0 0 1-.777-.37 1.016 1.016 0 0 1-.206-.852c1.009-4.846 5.283-8.386 10.22-8.506a6.671 6.671 0 0 0 .516 0 10.695 10.695 0 0 1 8.638 4.748.972.972 0 1 0 1.615-1.083 12.646 12.646 0 0 0-6.553-4.979 6.605 6.605 0 0 0 2.653-5.292A6.619 6.619 0 0 0 21.444 9a6.619 6.619 0 0 0-6.61 6.611 6.606 6.606 0 0 0 2.655 5.294 12.634 12.634 0 0 0-4.074 2.24 12.684 12.684 0 0 0-4.352 7.182 2.952 2.952 0 0 0 2.887 3.562h18.988a2.952 2.952 0 0 0 2.887-3.562zM16.778 15.61a4.672 4.672 0 0 1 4.666-4.667 4.672 4.672 0 0 1 4.667 4.667 4.673 4.673 0 0 1-4.43 4.66 12.324 12.324 0 0 0-.472 0 4.672 4.672 0 0 1-4.431-4.66z"/>
    </g>
</svg>
