<svg xmlns="http://www.w3.org/2000/svg" width="42" height="42" viewBox="0 0 42 42">
    <g fill="none" fill-rule="evenodd">
        <rect width="42" height="42" fill="#B13643" rx="3.111"/>
        <path fill="#FFF" d="M27.18 17.028c-3.694 0-6.704 3.001-6.708 6.693.003 2.858 1.722 4.738 3.384 6.556.813.889 1.654 1.808 2.317 2.856a.97.97 0 0 0 .822.449h.372a.97.97 0 0 0 .821-.45c.664-1.047 1.504-1.966 2.317-2.855 1.662-1.818 3.381-3.698 3.384-6.558-.004-3.69-3.014-6.691-6.708-6.691zm1.889 11.94c-.636.696-1.289 1.409-1.888 2.209-.6-.8-1.252-1.513-1.889-2.21-1.542-1.686-2.873-3.142-2.875-5.246a4.767 4.767 0 0 1 4.764-4.752 4.767 4.767 0 0 1 4.763 4.75c-.002 2.106-1.333 3.562-2.875 5.249zm.98-5.15a.972.972 0 0 1-1.945 0 .973.973 0 0 0-1.944 0c0 .535.436.97.972.97a.972.972 0 1 1 0 1.943 2.918 2.918 0 0 1-2.917-2.913 2.918 2.918 0 0 1 2.917-2.913 2.918 2.918 0 0 1 2.917 2.913zm-6.855 8.793c0 .536-.435.97-.972.97H15.32a3.89 3.89 0 0 1-3.888-3.883V20.83l-.772.77a.97.97 0 0 1-1.375-.002.97.97 0 0 1 .001-1.373l10.223-10.189a2.917 2.917 0 0 1 3.963.003l3.47 3.436a.97.97 0 0 1 .006 1.373.973.973 0 0 1-1.374.006l-3.45-3.416a.972.972 0 0 0-1.265-.004l-7.484 7.46.001.028v10.777c0 1.07.872 1.942 1.944 1.942h6.903c.537 0 .972.435.972.97z"/>
    </g>
</svg>
