<svg xmlns="http://www.w3.org/2000/svg" xmlns:xlink="http://www.w3.org/1999/xlink" width="32" height="32" viewBox="0 0 32 32">
    <defs>
        <rect id="a" width="32" height="32" rx="2.37"/>
    </defs>
    <g fill="none" fill-rule="evenodd">
        <g>
            <mask id="b" fill="#fff">
                <use xlink:href="#a"/>
            </mask>
            <use fill="#D8D8D8" xlink:href="#a"/>
            <g fill="#00A1BA" mask="url(#b)">
                <path d="M0 0h32.141v32.141H0z"/>
            </g>
        </g>
        <path fill="#FFF" d="M14.37 25.222c0 .41-.331.741-.74.741h-2.47A2.962 2.962 0 0 1 8.207 23V9.963A2.962 2.962 0 0 1 11.161 7h9.08a2.962 2.962 0 0 1 2.955 2.963v4.556a.74.74 0 1 1-1.478 0V9.963c0-.817-.662-1.482-1.477-1.482h-9.08c-.815 0-1.478.665-1.478 1.482V23c0 .817.663 1.481 1.478 1.481h2.47a.74.74 0 0 1 .738.741zm5.133-13.778h-7.608a.74.74 0 0 0 0 1.482h7.608a.74.74 0 0 0 0-1.482zm.738 3.704a.74.74 0 0 0-.738-.74h-7.608a.74.74 0 0 0 0 1.48h7.608a.74.74 0 0 0 .738-.74zm-8.346 2.222a.74.74 0 0 0 0 1.482h4.62a.74.74 0 0 0 0-1.482h-4.62zm12.609 3.498l-4.047 4.05a.738.738 0 0 1-.324.19l-2.981.828a.735.735 0 0 1-.726-.197.742.742 0 0 1-.178-.732l.883-2.916a.741.741 0 0 1 .185-.309l4.055-4.058a2.214 2.214 0 0 1 3.133 0 2.23 2.23 0 0 1 0 3.144zm-2.233.141l-1.045-1.047L18.49 22.7l-.439 1.449 1.5-.417 2.72-2.723zm1.188-2.236a.738.738 0 0 0-1.044 0l-.143.142 1.045 1.048.143-.143a.743.743 0 0 0 0-1.047z"/>
    </g>
</svg>
