<?xml version="1.0" encoding="UTF-8"?> <svg xmlns="http://www.w3.org/2000/svg" xmlns:xlink="http://www.w3.org/1999/xlink" width="120" height="120"><defs><circle id="a" cx="60" cy="60" r="60"></circle></defs><g fill="none" fill-rule="evenodd"><g><mask id="b" fill="#fff"><use xlink:href="#a"></use></mask><use fill="#E6FFE8" fill-rule="nonzero" xlink:href="#a"></use><path d="M12.388 124.387c.689-14.024 4.948-22.485 29.845-22.485 13.82 0 18.708-7.638 20.051-15.51" stroke="#88D09B" stroke-width="6.333" stroke-dasharray="9.16908343633016,3.055833180745443" mask="url(#b)"></path></g><path d="M62.987 57.733c-5.2 0-9.417-3.937-9.417-8.793 0-4.854 4.217-8.791 9.417-8.791 5.201 0 9.417 3.937 9.417 8.791 0 4.856-4.216 8.793-9.417 8.793M83.538 41.18a19.513 19.513 0 0 0-4.242-6.663c-1.852-1.909-4.137-3.416-6.85-4.523-2.712-1.106-5.79-1.66-9.23-1.66-3.018 0-5.876.554-8.57 1.66-2.694 1.107-5.054 2.614-7.08 4.523a21.727 21.727 0 0 0-4.814 6.663 18.722 18.722 0 0 0-1.777 8.03c0 2.961.659 5.923 1.978 8.885 1.318 2.962 2.961 5.842 4.93 8.644a80.727 80.727 0 0 0 6.42 8.003c2.311 2.533 4.46 4.87 6.45 7.011 0 .036.275.275.83.722.555.447 1.233.669 2.035.669h.172c.763 0 1.432-.222 2.006-.669.574-.447.86-.686.86-.722 1.873-2 3.88-4.282 6.02-6.851a80.185 80.185 0 0 0 5.96-8.163c1.835-2.872 3.354-5.798 4.559-8.777C84.398 54.98 85 52.063 85 49.209c0-2.819-.487-5.495-1.462-8.03" fill="#0E9532"></path></g></svg> 