<?xml version="1.0" encoding="UTF-8"?> <svg xmlns="http://www.w3.org/2000/svg" width="120" height="120"><g fill="none" fill-rule="evenodd"><circle fill="#FCF1F2" fill-rule="nonzero" cx="60" cy="60" r="60"></circle><path d="M44.877 55.69c0 3.142-2.585 5.69-5.772 5.69-3.187 0-5.772-2.548-5.772-5.69 0-3.143 2.585-5.69 5.772-5.69 3.187 0 5.772 2.547 5.772 5.69M89.126 55.69c0 3.142-2.585 5.69-5.772 5.69-3.188 0-5.771-2.548-5.771-5.69 0-3.143 2.583-5.69 5.771-5.69 3.187 0 5.772 2.547 5.772 5.69" fill="#FFB5B8"></path><path d="M51.638 68.707h19.183v9.483H51.638z"></path><path d="M52.376 68.707c-.418 0-.768.345-.736.755.39 4.884 4.535 8.728 9.59 8.728 5.054 0 9.198-3.844 9.589-8.728.032-.41-.32-.755-.737-.755H52.376z" fill="#F96167"></path></g></svg> 