<?xml version="1.0" encoding="UTF-8"?> <svg xmlns="http://www.w3.org/2000/svg" xmlns:xlink="http://www.w3.org/1999/xlink" width="120" height="120"><defs><path id="a" d="M0 .051h39.854v40.253H0z"></path><path id="c" d="M0 0h35.232v35.467H0z"></path></defs><g fill="none" fill-rule="evenodd"><circle fill="#E6FFE8" fill-rule="nonzero" cx="60" cy="60" r="60"></circle><g transform="translate(32 32.135)"><mask id="b" fill="#fff"><use xlink:href="#a"></use></mask><path d="M19.59 17.659h18.773c.963 0 1.667-.903 1.452-1.849C37.758 6.74 29.666-.016 20.017.052 8.973.129-.023 9.272 0 20.39c.02 9.873 7.045 18.091 16.337 19.887.915.177 1.76-.54 1.76-1.478V19.161c0-.83.669-1.502 1.493-1.502" fill="#88D09B" mask="url(#b)"></path></g><g transform="translate(52.768 52.482)"><mask id="d" fill="#fff"><use xlink:href="#c"></use></mask><path d="M33.778 35.467H1.454A1.459 1.459 0 0 1 0 34.003V1.463C0 .655.65 0 1.454 0h32.324c.803 0 1.454.655 1.454 1.463v32.54c0 .808-.651 1.464-1.454 1.464" fill="#0E9532" mask="url(#d)"></path></g></g></svg> 