<?xml version="1.0" encoding="UTF-8"?> <svg xmlns="http://www.w3.org/2000/svg" width="120" height="120"><g fill="none" fill-rule="evenodd"><circle fill="#F9ECFE" fill-rule="nonzero" cx="60" cy="60" r="60"></circle><path d="M31 75.824v-.72h.96c1.488 0 2.304-.72 3.12-2.832L45.928 44h2.928l12.72 31.104h2.352v.72H48.856v-.72h3.36l-3.792-9.216H38.296l-2.448 6.384c-.672 1.728.384 2.832 2.592 2.832h1.44v.72H31zm7.584-10.656h9.552l-4.944-12-4.608 12z" fill="#830AC5"></path><path d="M77.096 71.84H77c-.96 2.016-3.264 4.032-6.672 4.032-3.12 0-6.528-1.392-6.528-5.376 0-5.184 6.576-6.864 12.384-6.864h.48v-5.04c0-2.688-.864-4.368-3.12-4.368-2.448 0-3.024 1.488-3.024 3.648 0 1.68.432 3.024 2.256 2.736v.384s-1.584.48-3.072.48c-2.544 0-4.752-.912-4.752-3.12 0-2.736 2.976-4.752 8.784-4.752 8.544 0 11.472 2.4 11.472 6.576V72.32c0 1.104.288 1.728 1.008 1.728 1.248 0 1.728-1.92 1.728-3.312h.72c0 2.976-1.488 5.136-5.616 5.136-2.88 0-5.76-1.344-5.952-4.032zm-.432-1.44v-6.048h-.336c-3.36 0-4.032 1.776-4.032 5.904 0 2.352.624 3.408 1.728 3.408 1.392 0 2.64-2.16 2.64-3.264z" fill="#CA8BEC"></path></g></svg> 