<?xml version="1.0" encoding="utf-8"?>
<!-- Generator: Adobe Illustrator 23.0.0, SVG Export Plug-In . SVG Version: 6.00 Build 0)  -->
<svg version="1.1" id="Layer_1" xmlns="http://www.w3.org/2000/svg" xmlns:xlink="http://www.w3.org/1999/xlink" x="0px" y="0px"
	 viewBox="0 0 1200 1200" style="enable-background:new 0 0 1200 1200;" xml:space="preserve">
<style type="text/css">
	.st0{clip-path:url(#SVGID_2_);}
	.st1{clip-path:url(#SVGID_4_);fill:#282526;}
	.st2{clip-path:url(#SVGID_4_);fill:#FF6600;}
	.st3{clip-path:url(#SVGID_4_);fill:#FFFFFF;}
	.st4{clip-path:url(#SVGID_4_);fill:none;stroke:#FFFFFF;stroke-width:2.202;stroke-miterlimit:10;}
	.st5{clip-path:url(#SVGID_6_);}
	.st6{clip-path:url(#SVGID_8_);fill:#FF6600;}
	.st7{clip-path:url(#SVGID_8_);fill:#FFFFFF;}
	.st8{clip-path:url(#SVGID_8_);fill:#282526;}
	.st9{clip-path:url(#SVGID_10_);}
	.st10{clip-path:url(#SVGID_12_);fill:#FF6600;}
	.st11{clip-path:url(#SVGID_12_);fill:#282526;}
	.st12{clip-path:url(#SVGID_12_);fill:#FFFFFF;}
	.st13{clip-path:url(#SVGID_12_);fill:none;stroke:#FFFFFF;stroke-width:17.908;stroke-miterlimit:10;}
	.st14{clip-path:url(#SVGID_14_);}
	.st15{clip-path:url(#SVGID_16_);fill:#282526;}
	.st16{clip-path:url(#SVGID_16_);fill:#FF6600;}
	.st17{clip-path:url(#SVGID_16_);fill:none;stroke:#FFFFFF;stroke-width:19.371;stroke-miterlimit:10;}
</style>
<g>
	<g>
		<defs>
			<rect id="SVGID_1_" x="100" y="100" width="1000" height="1000"/>
		</defs>
		<clipPath id="SVGID_2_">
			<use xlink:href="#SVGID_1_"  style="overflow:visible;"/>
		</clipPath>
		<g class="st0">
			<defs>
				<rect id="SVGID_3_" x="100" y="100" width="1000" height="1000"/>
			</defs>
			<clipPath id="SVGID_4_">
				<use xlink:href="#SVGID_3_"  style="overflow:visible;"/>
			</clipPath>
			<path class="st1" d="M771.52,316.04c0,96.11-77.91,174.02-174.02,174.02s-174.02-77.91-174.02-174.02s77.91-174.02,174.02-174.02
				S771.52,219.93,771.52,316.04"/>
			<path class="st2" d="M282.26,257.85v248.49h39.63V297.48h84.68c1.28-13.7,4.05-26.95,8.1-39.63H282.26z M780.31,257.85
				c4.09,12.68,6.82,25.94,8.15,39.63h86.97v208.86h39.63V257.85H780.31z M875.42,693.54v159.23l-277.86,159.45L321.89,852.82
				V693.54h-39.63v182.18l315.25,182.26l317.54-182.26V693.54H875.42z"/>
			<rect x="340.79" y="316.07" class="st1" width="515.74" height="190.28"/>
			<polygon class="st1" points="340.79,693.54 856.53,693.54 856.53,835.42 597.69,983.95 340.79,835.42 			"/>
			<polygon class="st2" points="106.8,594.11 146.54,659.94 106.8,728.71 271.94,728.71 271.94,674.78 227.45,652.02 208.57,594.11 
							"/>
			<polygon class="st2" points="1093.2,594.35 1053.46,660.18 1093.2,728.95 928.06,728.95 928.06,675.02 972.55,652.26 
				991.43,594.35 			"/>
			<rect x="209.17" y="523.9" class="st2" width="781.66" height="152.08"/>
			<path class="st3" d="M523.52,232.12l27.19,75.59h47.94V206.56c-7.7,43.51-19.12,58.73-28.91,58.73S530.59,242.45,523.52,232.12"
				/>
			<path class="st3" d="M672.63,232.12l-27.19,75.59H597.5V206.56c7.7,43.51,19.12,58.73,28.91,58.73S665.56,242.45,672.63,232.12"
				/>
			<path class="st3" d="M554.33,265.21c6.13-13.28,9.54-39.17,9.54-39.17c5.79,9.2,15.33,27.59,25.21,32.7
				c9.88,5.11-8.17,11.92-8.17,11.92L554.33,265.21z"/>
			<path class="st3" d="M644.41,265.21c-6.13-13.28-9.54-39.17-9.54-39.17c-5.79,9.2-15.33,27.59-25.21,32.7
				c-9.88,5.11,8.17,11.92,8.17,11.92L644.41,265.21z"/>
			<path class="st3" d="M530.35,228.1c0,3.78-3.06,6.84-6.83,6.84c-3.78,0-6.84-3.06-6.84-6.84c0-3.77,3.06-6.83,6.84-6.83
				C527.29,221.26,530.35,224.32,530.35,228.1"/>
			<path class="st3" d="M568.81,226.15c0,2.7-2.19,4.88-4.88,4.88s-4.88-2.19-4.88-4.88c0-2.7,2.19-4.88,4.88-4.88
				S568.81,223.45,568.81,226.15"/>
			<path class="st3" d="M639.95,226.15c0,2.7-2.19,4.88-4.88,4.88c-2.7,0-4.88-2.19-4.88-4.88c0-2.7,2.19-4.88,4.88-4.88
				C637.76,221.26,639.95,223.45,639.95,226.15"/>
			<path class="st3" d="M679.47,228.1c0,3.78-3.06,6.84-6.84,6.84c-3.78,0-6.84-3.06-6.84-6.84c0-3.77,3.06-6.83,6.84-6.83
				C676.41,221.26,679.47,224.32,679.47,228.1"/>
			<path class="st3" d="M606.71,207.82c0,4.45-3.61,8.06-8.06,8.06c-4.45,0-8.06-3.61-8.06-8.06c0-4.45,3.61-8.06,8.06-8.06
				C603.1,199.76,606.71,203.36,606.71,207.82"/>
			<polygon class="st3" points="454.62,468.16 430.92,468.16 430.92,376.83 402.64,385.6 402.64,366.34 452.08,348.63 
				454.62,348.63 			"/>
			<path class="st3" d="M573.74,418.81c0,16.5-3.42,29.13-10.25,37.87c-6.83,8.75-16.83,13.12-30.01,13.12
				c-13.01,0-22.96-4.29-29.84-12.88c-6.89-8.58-10.41-20.87-10.58-36.89v-21.97c0-16.67,3.46-29.32,10.37-37.96
				c6.92-8.64,16.87-12.95,29.88-12.95c13.01,0,22.96,4.27,29.84,12.83c6.89,8.56,10.41,20.84,10.58,36.85V418.81z M550.04,394.65
				c0-9.9-1.35-17.11-4.06-21.62c-2.71-4.51-6.93-6.77-12.67-6.77c-5.58,0-9.69,2.15-12.34,6.44c-2.65,4.29-4.06,11.01-4.22,20.14
				v29.05c0,9.74,1.32,16.97,3.98,21.7c2.65,4.73,6.9,7.1,12.75,7.1c5.79,0,9.97-2.27,12.54-6.81c2.57-4.54,3.91-11.49,4.02-20.84
				V394.65z"/>
			<path class="st3" d="M670.07,418.81c0,16.5-3.42,29.13-10.25,37.87c-6.83,8.75-16.83,13.12-30.01,13.12
				c-13.01,0-22.95-4.29-29.84-12.88c-6.89-8.58-10.41-20.87-10.58-36.89v-21.97c0-16.67,3.46-29.32,10.37-37.96
				c6.92-8.64,16.87-12.95,29.88-12.95c13.01,0,22.96,4.27,29.84,12.83c6.89,8.56,10.41,20.84,10.58,36.85V418.81z M646.37,394.65
				c0-9.9-1.35-17.11-4.06-21.62c-2.71-4.51-6.93-6.77-12.67-6.77c-5.58,0-9.69,2.15-12.34,6.44c-2.65,4.29-4.06,11.01-4.22,20.14
				v29.05c0,9.74,1.33,16.97,3.98,21.7c2.65,4.73,6.9,7.1,12.75,7.1c5.79,0,9.97-2.27,12.54-6.81c2.57-4.54,3.91-11.49,4.02-20.84
				V394.65z"/>
			<path class="st3" d="M685.72,371.75c0-7.32,2.38-13.27,7.13-17.83c4.76-4.56,10.98-6.85,18.69-6.85c7.82,0,14.1,2.25,18.86,6.76
				c4.75,4.51,7.13,10.62,7.13,18.32v5.9c0,7.38-2.38,13.31-7.13,17.79c-4.75,4.48-10.98,6.72-18.69,6.72
				c-7.76,0-14.03-2.25-18.82-6.76c-4.78-4.51-7.17-10.59-7.17-18.24V371.75z M701.46,378.06c0,3.28,0.94,5.92,2.83,7.91
				c1.89,2,4.36,2.99,7.42,2.99c3.06,0,5.49-1.01,7.3-3.03c1.8-2.02,2.71-4.73,2.71-8.11v-6.07c0-3.28-0.9-5.93-2.71-7.95
				c-1.8-2.02-4.29-3.04-7.46-3.04c-3.01,0-5.44,1-7.3,2.99c-1.86,1.99-2.79,4.77-2.79,8.32V378.06z M716.38,459.22l-11.56-6.23
				l58.29-93.29l11.56,6.23L716.38,459.22z M742.78,438.89c0-7.38,2.4-13.32,7.22-17.83c4.81-4.51,11.04-6.76,18.69-6.76
				c7.76,0,14.03,2.23,18.81,6.68c4.78,4.46,7.17,10.59,7.17,18.41v5.9c0,7.33-2.35,13.24-7.05,17.75
				c-4.7,4.51-10.96,6.76-18.77,6.76c-7.87,0-14.18-2.27-18.94-6.81s-7.13-10.54-7.13-18.04V438.89z M758.52,445.28
				c0,3.01,0.98,5.58,2.95,7.71c1.97,2.13,4.43,3.2,7.38,3.2c6.67,0,10-3.69,10-11.07v-6.23c0-3.28-0.93-5.91-2.79-7.91
				c-1.86-1.99-4.32-2.99-7.38-2.99c-3.06,0-5.52,1-7.38,2.99c-1.86,1.99-2.79,4.71-2.79,8.16V445.28z"/>
			<path class="st3" d="M425.54,607.01c0,8.21-1.33,15.35-3.99,21.41c-2.66,6.06-6.34,10.92-11.05,14.59l14.62,11.47l-11.54,10.21
				l-18.72-15.04c-2.14,0.36-4.35,0.55-6.64,0.55c-7.29,0-13.79-1.75-19.51-5.26c-5.72-3.51-10.15-8.51-13.29-15.01
				c-3.14-6.5-4.73-13.98-4.77-22.44v-4.35c0-8.66,1.56-16.28,4.68-22.86c3.12-6.58,7.53-11.64,13.23-15.16
				c5.7-3.52,12.21-5.29,19.54-5.29s13.84,1.76,19.54,5.29c5.7,3.52,10.11,8.58,13.23,15.16c3.12,6.58,4.68,14.18,4.68,22.8V607.01z
				 M407.18,603.03c0-9.22-1.65-16.22-4.95-21.02c-3.3-4.79-8.01-7.19-14.13-7.19c-6.08,0-10.77,2.36-14.07,7.1
				c-3.3,4.73-4.97,11.67-5.01,20.81v4.29c0,8.98,1.65,15.95,4.95,20.9c3.3,4.95,8.05,7.43,14.25,7.43c6.08,0,10.75-2.39,14.01-7.16
				c3.26-4.77,4.91-11.73,4.95-20.87V603.03z"/>
			<path class="st3" d="M505.39,561.05v57.92c0,9.62-3.01,17.23-9.03,22.83c-6.02,5.6-14.24,8.39-24.67,8.39
				c-10.27,0-18.42-2.72-24.46-8.15c-6.04-5.44-9.12-12.91-9.24-22.41v-58.58h18.12v58.04c0,5.76,1.38,9.96,4.14,12.59
				c2.76,2.64,6.57,3.96,11.44,3.96c10.19,0,15.36-5.35,15.52-16.07v-58.52H505.39z"/>
			<path class="st3" d="M568.56,630.87h-31.77l-6.04,18.12h-19.26l32.73-87.94h16.79l32.92,87.94h-19.27L568.56,630.87z
				 M541.68,616.19h21.99l-11.05-32.92L541.68,616.19z"/>
			<polygon class="st3" points="620.26,634.43 658.74,634.43 658.74,648.99 602.14,648.99 602.14,561.05 620.26,561.05 			"/>
			<rect x="670.27" y="561.05" class="st3" width="18.12" height="87.94"/>
			<polygon class="st3" points="769.63,575.73 742.69,575.73 742.69,648.99 724.57,648.99 724.57,575.73 698,575.73 698,561.05 
				769.63,561.05 			"/>
			<polygon class="st3" points="811.24,600.67 829.54,561.05 849.35,561.05 820.48,617.1 820.48,648.99 802.06,648.99 802.06,617.1 
				773.19,561.05 793.06,561.05 			"/>
			<path class="st3" d="M436.67,776.7h-24.18l-4.6,13.79h-14.66l24.91-66.92h12.78l25.05,66.92h-14.66L436.67,776.7z M416.21,765.53
				h16.73l-8.41-25.05L416.21,765.53z"/>
			<path class="st3" d="M496.92,772.93c0-2.6-0.92-4.6-2.76-5.99c-1.84-1.4-5.15-2.87-9.93-4.42c-4.78-1.54-8.57-3.07-11.35-4.57
				c-7.6-4.11-11.4-9.64-11.4-16.59c0-3.62,1.02-6.84,3.06-9.68c2.04-2.83,4.96-5.05,8.78-6.64c3.81-1.6,8.1-2.39,12.85-2.39
				c4.78,0,9.04,0.86,12.78,2.6c3.74,1.73,6.64,4.17,8.71,7.33c2.07,3.16,3.1,6.74,3.1,10.76h-13.79c0-3.06-0.97-5.44-2.9-7.15
				c-1.93-1.7-4.64-2.55-8.13-2.55c-3.37,0-5.99,0.71-7.86,2.14c-1.87,1.43-2.8,3.3-2.8,5.63c0,2.18,1.1,4,3.29,5.47
				c2.19,1.47,5.41,2.85,9.67,4.14c7.84,2.36,13.56,5.29,17.14,8.78c3.59,3.49,5.38,7.84,5.38,13.05c0,5.79-2.19,10.33-6.57,13.63
				c-4.38,3.29-10.28,4.94-17.7,4.94c-5.15,0-9.83-0.94-14.06-2.83c-4.23-1.88-7.45-4.46-9.67-7.74c-2.22-3.28-3.33-7.08-3.33-11.4
				h13.83c0,7.38,4.41,11.08,13.24,11.08c3.28,0,5.84-0.67,7.68-2C496,777.18,496.92,775.32,496.92,772.93"/>
			<path class="st3" d="M554.79,772.93c0-2.6-0.92-4.6-2.76-5.99c-1.84-1.4-5.15-2.87-9.93-4.42c-4.78-1.54-8.57-3.07-11.35-4.57
				c-7.6-4.11-11.4-9.64-11.4-16.59c0-3.62,1.02-6.84,3.06-9.68c2.04-2.83,4.96-5.05,8.78-6.64c3.81-1.6,8.1-2.39,12.85-2.39
				c4.78,0,9.04,0.86,12.78,2.6c3.74,1.73,6.64,4.17,8.71,7.33c2.07,3.16,3.1,6.74,3.1,10.76h-13.79c0-3.06-0.97-5.44-2.9-7.15
				c-1.93-1.7-4.64-2.55-8.13-2.55c-3.37,0-5.99,0.71-7.86,2.14c-1.87,1.43-2.8,3.3-2.8,5.63c0,2.18,1.1,4,3.29,5.47
				c2.19,1.47,5.42,2.85,9.67,4.14c7.84,2.36,13.56,5.29,17.14,8.78c3.59,3.49,5.38,7.84,5.38,13.05c0,5.79-2.19,10.33-6.57,13.63
				c-4.38,3.29-10.28,4.94-17.7,4.94c-5.15,0-9.84-0.94-14.06-2.83c-4.23-1.88-7.45-4.46-9.67-7.74c-2.22-3.28-3.33-7.08-3.33-11.4
				h13.83c0,7.38,4.41,11.08,13.24,11.08c3.28,0,5.84-0.67,7.68-2C553.87,777.18,554.79,775.32,554.79,772.93"/>
			<path class="st3" d="M628.6,723.57v44.07c0,7.32-2.29,13.12-6.87,17.37c-4.58,4.26-10.84,6.39-18.78,6.39
				c-7.81,0-14.02-2.07-18.61-6.21c-4.6-4.14-6.94-9.82-7.03-17.05v-44.58h13.79v44.17c0,4.38,1.05,7.57,3.15,9.58
				c2.1,2.01,5,3.01,8.71,3.01c7.75,0,11.69-4.08,11.81-12.23v-44.53H628.6z"/>
			<path class="st3" d="M664.68,765.99h-10.98v24.5h-13.79v-66.92h24.86c7.91,0,14,1.76,18.29,5.29c4.29,3.52,6.43,8.5,6.43,14.93
				c0,4.57-0.99,8.37-2.97,11.42s-4.97,5.48-8.99,7.28l14.48,27.35v0.65h-14.8L664.68,765.99z M653.69,754.82h11.12
				c3.46,0,6.14-0.88,8.04-2.64c1.9-1.76,2.85-4.19,2.85-7.28c0-3.16-0.9-5.64-2.69-7.45c-1.79-1.81-4.54-2.71-8.25-2.71h-11.08
				V754.82z"/>
			<polygon class="st3" points="740.24,761.49 713.77,761.49 713.77,779.41 744.84,779.41 744.84,790.49 699.98,790.49 
				699.98,723.57 744.75,723.57 744.75,734.74 713.77,734.74 713.77,750.68 740.24,750.68 			"/>
			<path class="st3" d="M752.93,790.49v-66.92h20.59c5.88,0,11.15,1.32,15.79,3.97c4.64,2.65,8.26,6.42,10.87,11.3
				c2.6,4.89,3.91,10.44,3.91,16.66v3.08c0,6.22-1.28,11.75-3.84,16.59c-2.56,4.84-6.17,8.6-10.82,11.26
				c-4.66,2.67-9.91,4.02-15.77,4.05H752.93z M766.71,734.74v44.67h6.67c5.39,0,9.51-1.76,12.36-5.29c2.85-3.52,4.3-8.56,4.37-15.12
				v-3.54c0-6.8-1.41-11.96-4.23-15.47c-2.82-3.51-6.94-5.26-12.36-5.26H766.71z"/>
			<polygon class="st3" points="598.66,859.75 608.45,879.6 630.35,882.78 614.51,898.23 618.25,920.04 598.66,909.74 
				579.07,920.04 582.81,898.23 566.96,882.78 588.86,879.6 			"/>
			<polygon class="st3" points="688.79,859.75 695.59,873.52 710.78,875.72 699.79,886.44 702.38,901.57 688.79,894.43 
				675.2,901.57 677.8,886.44 666.81,875.72 682,873.52 			"/>
			<polygon class="st3" points="508.52,859.75 515.32,873.52 530.51,875.72 519.51,886.44 522.11,901.57 508.52,894.43 
				494.93,901.57 497.53,886.44 486.53,875.72 501.73,873.52 			"/>
			<polygon class="st3" points="917.87,578.74 927.66,598.59 949.57,601.77 933.72,617.22 937.46,639.03 917.87,628.73 
				898.28,639.03 902.02,617.22 886.17,601.77 908.08,598.59 			"/>
			<polygon class="st3" points="282.13,578.74 291.92,598.59 313.83,601.77 297.98,617.22 301.72,639.03 282.13,628.73 
				262.54,639.03 266.28,617.22 250.43,601.77 272.33,598.59 			"/>
			<line class="st4" x1="389.9" y1="806.71" x2="803.57" y2="806.71"/>
			<line class="st4" x1="389.9" y1="824.42" x2="803.57" y2="824.42"/>
		</g>
	</g>
</g>
<g>
	<g>
		<defs>
			<rect id="SVGID_5_" x="2523" y="262" width="1000" height="1000"/>
		</defs>
		<clipPath id="SVGID_6_">
			<use xlink:href="#SVGID_5_"  style="overflow:visible;"/>
		</clipPath>
		<g class="st5">
			<defs>
				<rect id="SVGID_7_" x="2523" y="262" width="1000" height="1000"/>
			</defs>
			<clipPath id="SVGID_8_">
				<use xlink:href="#SVGID_7_"  style="overflow:visible;"/>
			</clipPath>
			<path class="st6" d="M3508.69,762c0,61.08-79.8,105.86-101.83,158.98c-22.83,55.07,1.07,142.95-40.43,184.45
				s-129.39,17.59-184.45,40.43c-53.12,22.03-97.9,101.83-158.98,101.83s-105.86-79.8-158.98-101.83
				c-55.07-22.83-142.96,1.07-184.45-40.43c-41.5-41.5-17.59-129.39-40.43-184.45c-22.03-53.12-101.83-97.9-101.83-158.98
				s79.8-105.86,101.83-158.98c22.83-55.07-1.07-142.95,40.43-184.45c41.5-41.5,129.39-17.59,184.45-40.43
				c53.12-22.03,97.9-101.83,158.98-101.83s105.86,79.8,158.98,101.83c55.07,22.83,142.96-1.07,184.45,40.43
				s17.59,129.39,40.43,184.45C3428.89,656.14,3508.69,700.92,3508.69,762"/>
			<path class="st7" d="M3412.06,762c0,214.87-174.19,389.06-389.06,389.06c-214.87,0-389.06-174.19-389.06-389.06
				S2808.13,372.94,3023,372.94C3237.87,372.94,3412.06,547.13,3412.06,762"/>
			<polygon class="st8" points="3023,971.57 3036.31,998.53 3066.07,1002.86 3044.53,1023.85 3049.62,1053.48 3023,1039.49 
				2996.38,1053.48 3001.47,1023.85 2979.93,1002.86 3009.69,998.53 			"/>
			<polygon class="st8" points="3145.47,971.57 3154.7,990.27 3175.34,993.27 3160.41,1007.83 3163.93,1028.39 3145.47,1018.68 
				3127.01,1028.39 3130.53,1007.83 3115.59,993.27 3136.24,990.27 			"/>
			<polygon class="st8" points="2900.53,971.57 2909.76,990.27 2930.41,993.27 2915.47,1007.83 2918.99,1028.39 2900.53,1018.68 
				2882.07,1028.39 2885.59,1007.83 2870.66,993.27 2891.3,990.27 			"/>
			<polygon class="st8" points="3023,552.43 3009.69,525.47 2979.93,521.14 3001.47,500.15 2996.38,470.52 3023,484.51 
				3049.62,470.52 3044.53,500.15 3066.07,521.14 3036.31,525.47 			"/>
			<polygon class="st8" points="2900.53,552.43 2891.3,533.73 2870.66,530.73 2885.59,516.17 2882.07,495.61 2900.53,505.32 
				2918.99,495.61 2915.47,516.17 2930.41,530.73 2909.76,533.73 			"/>
			<polygon class="st8" points="3145.47,552.43 3136.24,533.73 3115.59,530.73 3130.53,516.17 3127.01,495.61 3145.47,505.32 
				3163.93,495.61 3160.41,516.17 3175.34,530.73 3154.7,533.73 			"/>
			<path class="st8" d="M2673.73,806.88c126.34,0,201.91-33.34,271.29-74.05v15.19c-67.87,38.93-146.46,72.02-271.29,72.02V806.88z"
				/>
			<path class="st8" d="M3337.98,598.53v13.15c-105.03,0-178.43,20.19-238.87,47.88h-30.12
				C3135.42,625.3,3215.59,598.53,3337.98,598.53"/>
			<path class="st8" d="M3023,434.78c44.19,0,87.04,8.65,127.36,25.7c38.96,16.48,73.96,40.08,104.02,70.14
				c30.06,30.06,53.66,65.06,70.14,104.02c17.05,40.32,25.7,83.17,25.7,127.36c0,44.19-8.65,87.04-25.7,127.36
				c-16.48,38.96-40.08,73.96-70.14,104.02c-30.06,30.06-65.06,53.66-104.02,70.14c-40.32,17.05-83.17,25.7-127.36,25.7
				s-87.04-8.65-127.36-25.7c-38.96-16.48-73.96-40.08-104.02-70.14c-30.06-30.06-53.66-65.06-70.14-104.02
				c-17.05-40.32-25.7-83.17-25.7-127.36c0-44.19,8.65-87.04,25.7-127.36c16.48-38.96,40.08-73.96,70.14-104.02
				c30.06-30.06,65.06-53.66,104.02-70.14C2935.96,443.43,2978.81,434.78,3023,434.78 M3023,401.9
				c-198.88,0-360.1,161.22-360.1,360.1c0,198.88,161.22,360.1,360.1,360.1s360.1-161.22,360.1-360.1
				C3383.1,563.12,3221.88,401.9,3023,401.9"/>
			<path class="st6" d="M3041.59,719.19v40.62c45.31,0,71.86,78.11,45.31,118.73c-26.56,40.62-74.42,21.87-74.42-21.87V694.49
				h103.53v-25.04h-103.53v-26.1c0-30.88-18.82-62.73-57.42-62.73h-60.79v40.93c33.11,0,60.62,0,60.62,23.43v24.46h-60.62v25.04
				h60.62v0.49v166.38c0,73.43,75.77,82.02,95.3,82.02s101.55-7.03,101.55-99.98S3104.86,719.19,3041.59,719.19"/>
			<path class="st8" d="M3191.73,1005.29c30.16-20.38,56.56-45.91,77.4-75.34c10.37-14.74,19.49-30.35,26.93-46.73
				c7.51-16.35,13.52-33.38,17.84-50.84c4.4-17.44,7.12-35.3,8.18-53.25c1.15-17.96,0.44-36.02-1.77-53.91
				c-4.53-35.78-15.8-70.73-32.78-102.92c19.38,30.84,32.31,65.92,37.86,102.21c2.86,18.14,3.71,36.59,2.9,54.96
				c-0.89,18.37-3.63,36.65-8.02,54.51c-4.54,17.83-10.71,35.25-18.59,51.87c-7.93,16.59-17.37,32.46-28.43,47.12
				C3251.27,962.36,3223.35,987.22,3191.73,1005.29"/>
			<path class="st8" d="M3195,951.3c21.66-14.63,40.61-32.96,55.57-54.1c7.44-10.59,13.99-21.79,19.34-33.56
				c5.39-11.74,9.7-23.97,12.81-36.51c3.16-12.52,5.11-25.34,5.87-38.24c0.83-12.9,0.31-25.87-1.27-38.71
				c-3.25-25.69-11.34-50.79-23.54-73.9c13.91,22.14,23.2,47.34,27.19,73.39c2.05,13.02,2.66,26.27,2.08,39.46
				c-0.64,13.19-2.61,26.32-5.76,39.14c-3.26,12.8-7.69,25.31-13.35,37.25c-5.69,11.91-12.47,23.31-20.41,33.84
				C3237.76,920.47,3217.71,938.33,3195,951.3"/>
		</g>
	</g>
</g>
<g>
	<g>
		<defs>
			<rect id="SVGID_9_" x="3543" y="262" width="1000" height="1000"/>
		</defs>
		<clipPath id="SVGID_10_">
			<use xlink:href="#SVGID_9_"  style="overflow:visible;"/>
		</clipPath>
		<g class="st9">
			<defs>
				<rect id="SVGID_11_" x="3543" y="262" width="1000" height="1000"/>
			</defs>
			<clipPath id="SVGID_12_">
				<use xlink:href="#SVGID_11_"  style="overflow:visible;"/>
			</clipPath>
			<path class="st10" d="M4182.16,846.19c116.96-98.58,106.94-252.84,19.71-339.33c-87.41-86.66-230.1-86.54-317.86,0.13
				c-86.64,85.57-97.34,241.06,19.61,339.05c-24.39,10.84-48.8,21.36-72.89,32.59c-7.81,3.64-11.66,0.22-16.31-5.1
				c-26.44-30.25-47.69-63.74-60.56-101.81c-4.16-12.31-10.07-16.62-22.39-16.46c-19.67,0.24-39.35-1.19-59.02-1.08
				c-10.08,0.06-15.23-1.35-17.34-13.61c-8.59-49.87-8.78-99.32,0.54-149.09c1.69-9,5.26-9.99,12.53-10.19
				c23.24-0.64,46.47-2.25,69.71-2.39c7.9-0.05,11.44-2.36,13.77-9.68c12.59-39.56,33.08-74.76,60.95-105.43
				c5.93-6.53,4.16-11.09,0.85-17.18c-10.48-19.23-20.39-38.78-31.18-57.84c-4.79-8.46-5.05-13.78,3.34-20.89
				c38.48-32.58,81.28-57.06,128.79-73.92c9.49-3.37,12.91,0.22,16.92,6.73c11.84,19.18,24.07,38.13,35.51,57.54
				c4.16,7.06,7.51,9.31,16.65,7.4c39.44-8.22,79.32-8.21,118.78-0.04c8.89,1.84,12.45,0.22,16.73-7.13
				c11.35-19.47,23.61-38.41,35.57-57.52c3.88-6.2,7.06-10.62,16.81-7.13c47.44,16.99,90.38,41.24,128.77,73.95
				c8.06,6.87,8.77,12.03,3.7,20.82c-10.94,18.97-20.56,38.69-31.33,57.76c-4.07,7.2-4.18,11.71,1.88,18.51
				c26.69,29.99,46.93,63.99,59.24,102.4c2.59,8.09,6.48,11.83,16.06,11.7c20.84-0.28,41.71,1.99,62.56,1.86
				c11.86-0.08,17.12,2.73,19.22,15.77c7.93,49.31,8,98.21-1.27,147.36c-1.73,9.2-5.71,9.94-12.91,10.05
				c-22.06,0.36-44.12,1.69-66.17,1.46c-11.05-0.12-15.05,4.94-18.32,14.52c-12.99,38.06-33.8,71.63-59.94,102.16
				c-6.54,7.64-11.56,8.93-20.79,4.54C4229.25,865.82,4205.73,856.35,4182.16,846.19"/>
			<path class="st11" d="M4313.76,1103.66c-7.77,11.34-52.99,61.95-138.32,91.28c-25.83,8.96-55.37,15.96-88.69,19.25
				c-13.93,1.4-28.49,2.17-43.75,2.17s-29.82-0.77-43.75-2.17c-143.22-14.28-216.86-95.76-227.01-110.53
				c2.03-11.06,25.06-137.83,25.06-137.83s3.85-19.32,12.46-25.27c0,0,66.71-35.98,120.89-50.47
				c20.86-21.42,41.86-31.29,47.39-36.82c1.96-1.96,0-15.19,0-20.65c-21.49-14.98-27.51-25.76-45.15-61.81
				c-29.89-20.93-31.15-19.67-31.15-80.36c0-7.35,2.1-12.67,17.22-22.19v-63.91c0-21.14,29.82-90.72,124.04-90.72
				c94.22,0,124.04,69.58,124.04,90.72v63.91c15.12,9.52,17.22,14.84,17.22,22.19c0,60.69-1.26,59.43-31.15,80.36
				c-17.64,36.05-23.66,46.83-45.15,61.81c0,5.46-1.96,18.69,0,20.65c5.53,5.53,26.53,15.4,47.39,36.82
				c54.18,14.49,120.82,50.47,120.82,50.47c8.61,5.95,12.53,25.27,12.53,25.27s4.69,25.9,10.01,55.23
				c5.11,28.07,10.78,59.29,13.51,74.27C4312.99,1099.46,4313.48,1102.33,4313.76,1103.66"/>
			<path class="st12" d="M4043,902.9v313.46c-15.26,0-29.82-0.77-43.75-2.17L4036,943.08l-28.35-36.26L4043,902.9z"/>
			<path class="st12" d="M4086.75,1214.19c-13.93,1.4-28.49,2.17-43.75,2.17V902.9l35.35,3.92L4050,943.08L4086.75,1214.19z"/>
			<path class="st10" d="M4366.29,1122.06c0,60.39-48.95,109.34-109.34,109.34c-60.39,0-109.34-48.95-109.34-109.34
				s48.95-109.34,109.34-109.34C4317.33,1012.72,4366.29,1061.68,4366.29,1122.06"/>
			<polyline class="st13" points="4211.75,1119.58 4249.85,1157.68 4325.23,1082.3 			"/>
		</g>
	</g>
</g>
<g>
	<g>
		<defs>
			<rect id="SVGID_13_" x="4563" y="262" width="1000" height="1000"/>
		</defs>
		<clipPath id="SVGID_14_">
			<use xlink:href="#SVGID_13_"  style="overflow:visible;"/>
		</clipPath>
		<g class="st14">
			<defs>
				<rect id="SVGID_15_" x="4563" y="262" width="1000" height="1000"/>
			</defs>
			<clipPath id="SVGID_16_">
				<use xlink:href="#SVGID_15_"  style="overflow:visible;"/>
			</clipPath>
			<path class="st15" d="M4898.43,541.18c-15.7,1.43-15.7,12.85-15.7,12.85v74.22h-39.07v-74.22c0,0,0-11.42-15.7-12.85
				c-59.95,14.99-72.79,97.77-44.25,139.88c35.68,36.4,37.82,56.38,37.82,131.2h21.23h40.86h21.23c0-74.82,2.14-94.8,37.82-131.2
				C4971.22,638.95,4958.37,556.16,4898.43,541.18"/>
			<path class="st15" d="M5117.52,812.73V692.28c-12.37,0-12.37-29.37-21.64-29.37c-13.14,0-42.51,15.46-49.46,26.28
				s-30.14,11.84-34.01-4.9c-11.59-37.07,35.55-122.62,91.2-122.62h108.98c14.68,26.28,20.09,25.5,30.92,0h58.74
				c12.37,0,10.05,13.91,10.05,13.91c0,38.64,0.17,77.29,0.17,88.88c0,11.59-13.31,9.27-13.31,9.27h-52.55
				c-6.96-6.96-15.46-20.09-20.1-16.23c-4.64,3.86-6.18,26.93-9.27,29.7c-3.09,2.76-13.91,0-13.91,0v125.53H5117.52z"/>
			<path class="st15" d="M5466.21,836.87v304.47c0,25.9-20.97,46.87-46.87,46.87H4656.4c-25.82,0-46.79-20.97-46.79-46.87V836.87
				c0-19.01,11.28-35.28,27.41-42.63c5.91-2.73,12.5-4.24,19.38-4.24h762.94c6.89,0,13.48,1.52,19.39,4.24
				C5454.93,801.59,5466.21,817.86,5466.21,836.87"/>
			<path class="st16" d="M5438.73,446.16v348.08c-5.91-2.73-12.49-4.24-19.38-4.24h-49.97c5.15-4.69,8.33-11.59,8.33-19.16V478.12
				c0-14.46-11.74-26.2-26.2-26.2h-627.25c-14.46,0-26.2,11.74-26.2,26.2v292.73c0,7.57,3.18,14.46,8.33,19.16h-49.98
				c-6.89,0-13.48,1.52-19.38,4.24V446.16c0-25.82,20.97-46.79,46.87-46.79h708.04C5417.75,399.37,5438.73,420.34,5438.73,446.16"/>
			<path class="st16" d="M5175.76,352.77v34.45h-275.77v-34.45c0-16.43,13.33-29.83,29.83-29.83h216.1
				C5162.43,322.94,5175.76,336.34,5175.76,352.77"/>
			<path class="st16" d="M5135.53,951.31h-201.86c-24.14,0-43.71-19.57-43.71-43.71c0-24.14,19.57-43.71,43.71-43.71h201.86
				c24.14,0,43.71,19.57,43.71,43.71C5179.24,931.74,5159.67,951.31,5135.53,951.31"/>
			<path class="st16" d="M5516.39,1082.79c0,65.32-52.95,118.27-118.27,118.27s-118.27-52.95-118.27-118.27
				c0-65.32,52.95-118.27,118.27-118.27S5516.39,1017.47,5516.39,1082.79"/>
			<polyline class="st17" points="5349.23,1080.1 5390.44,1121.32 5471.98,1039.78 			"/>
		</g>
	</g>
</g>
</svg>
