<svg xmlns="http://www.w3.org/2000/svg" width="96" height="96" viewBox="0 0 96 96">
    <g fill="none" fill-rule="evenodd">
        <circle cx="48" cy="48" r="48" fill="#F5F5F5"/>
        <path fill="#B7B7B7" fill-rule="nonzero" d="M62.904 31.368c.337 0 .677.023 1.01.069.307.042.58.215.75.474.171.26.22.579.137.878l-.987 3.531c-.115.407-.457.71-.876.772-4.518.672-6.786 6.635-7.73 10.091.98-.423 2.243-.77 3.756-.77.98 0 1.988.148 2.995.438 2.456.707 4.488 2.304 5.722 4.495 1.247 2.215 1.556 4.783.873 7.23-1.146 4.096-4.913 6.956-9.16 6.956h-.042c-3.442-.134-6.118-1.48-7.95-3.996-3.278-4.5-2.888-11.649-1.558-16.403 2.266-8.105 7.637-13.765 13.06-13.765zm-20.867 0c.337 0 .677.023 1.01.069.307.042.581.215.751.474.17.26.22.579.137.878l-.988 3.531c-.114.407-.457.71-.875.772-4.518.672-6.786 6.635-7.73 10.091.98-.423 2.243-.77 3.756-.77.98 0 1.988.148 2.995.438 2.457.707 4.488 2.304 5.722 4.494 1.247 2.216 1.557 4.783.872 7.231-1.146 4.096-4.912 6.956-9.16 6.956h-.041c-3.443-.135-6.118-1.48-7.952-3.997-3.276-4.5-2.886-11.648-1.556-16.402 2.266-8.105 7.637-13.765 13.06-13.765z"/>
    </g>
</svg>
