<svg xmlns="http://www.w3.org/2000/svg" xmlns:xlink="http://www.w3.org/1999/xlink" width="42" height="42" viewBox="0 0 42 42">
    <defs>
        <rect id="a" width="42" height="42" rx="3.111"/>
    </defs>
    <g fill="none" fill-rule="evenodd">
        <g>
            <mask id="b" fill="#fff">
                <use xlink:href="#a"/>
            </mask>
            <use fill="#D8D8D8" xlink:href="#a"/>
            <g fill="#00A1BA" mask="url(#b)">
                <path d="M0 0h41.88v41.88H0z"/>
            </g>
        </g>
        <path fill="#FFF" d="M33.889 28.007a5.889 5.889 0 0 1-5.882 5.882 5.889 5.889 0 0 1-5.882-5.882 5.889 5.889 0 0 1 5.882-5.882 5.889 5.889 0 0 1 5.882 5.882zm-1.945 0a3.942 3.942 0 0 0-3.937-3.938 3.942 3.942 0 0 0-3.938 3.938 3.942 3.942 0 0 0 3.938 3.937 3.942 3.942 0 0 0 3.937-3.937zm-2.527-.972h-.438v-1.021a.972.972 0 1 0-1.944 0v1.993c0 .537.435.972.972.972h1.41a.972.972 0 1 0 0-1.944zM30 10.945h-1.264v-.973a.972.972 0 1 0-1.944 0v.972h-4.424v-.972a.972.972 0 1 0-1.944 0v.972h-4.375v-.972a.972.972 0 1 0-1.945 0v.972H12.89A3.893 3.893 0 0 0 9 14.834V30a3.893 3.893 0 0 0 3.889 3.889h7.437a.972.972 0 1 0 0-1.945H12.89A1.947 1.947 0 0 1 10.944 30V14.833c0-1.072.873-1.944 1.945-1.944h1.215v.972a.972.972 0 1 0 1.945 0v-.972h4.375v.972a.972.972 0 1 0 1.944 0v-.972h4.424v.972a.972.972 0 1 0 1.944 0v-.972H30c1.072 0 1.944.872 1.944 1.944v5.542a.972.972 0 1 0 1.945 0v-5.542A3.893 3.893 0 0 0 30 10.944z"/>
    </g>
</svg>
