<svg xmlns="http://www.w3.org/2000/svg" width="100" height="100" viewBox="0 0 100 100">
    <g fill="none" fill-rule="nonzero">
        <path fill="#90DEA9" d="M46.883 3.69c1.717 1.14 4.526 1.14 6.24 0L57.659.679a3.661 3.661 0 0 1 5.125 1.092l2.917 4.6c1.103 1.739 3.668 2.88 5.699 2.537l5.368-.91a3.66 3.66 0 0 1 4.24 3.08l.796 5.377c.301 2.039 2.178 4.129 4.175 4.643l5.267 1.359a3.67 3.67 0 0 1 2.62 4.546l-1.458 5.228c-.554 1.984.312 4.656 1.927 5.937l4.276 3.392a3.665 3.665 0 0 1 .545 5.215l-3.471 4.19c-1.313 1.588-1.607 4.38-.653 6.207l2.52 4.82a3.665 3.665 0 0 1-1.618 4.986l-4.877 2.42c-1.845.917-3.248 3.35-3.12 5.406l.337 5.429a3.668 3.668 0 0 1-3.51 3.898l-5.435.23c-2.058.088-4.33 1.74-5.05 3.672l-1.89 5.095a3.666 3.666 0 0 1-4.79 2.135l-5.065-2.002c-1.914-.758-4.662-.175-6.104 1.298l-3.803 3.885a3.669 3.669 0 0 1-5.245.002l-3.81-3.888c-1.442-1.47-4.19-2.054-6.105-1.296l-5.062 2.002a3.663 3.663 0 0 1-4.789-2.136l-1.895-5.094C25 86.1 22.73 84.449 20.67 84.36l-5.433-.23a3.669 3.669 0 0 1-3.51-3.899l.34-5.428c.128-2.056-1.277-4.49-3.122-5.406l-4.875-2.42a3.665 3.665 0 0 1-1.62-4.987l2.521-4.82c.954-1.826.66-4.619-.654-6.204L.845 46.77a3.663 3.663 0 0 1 .546-5.213l4.277-3.392c1.613-1.28 2.48-3.952 1.927-5.937L6.133 27a3.665 3.665 0 0 1 2.62-4.541l5.27-1.362c1.995-.513 3.875-2.603 4.176-4.642l.795-5.377a3.662 3.662 0 0 1 4.24-3.08l5.37.91c2.03.343 4.595-.799 5.697-2.538l2.915-4.6A3.662 3.662 0 0 1 42.343.679l4.54 3.013z"/>
        <path fill="#71BF8C" d="M82.354 49.86c0 17.868-14.487 32.353-32.354 32.353-17.866 0-32.353-14.485-32.353-32.354 0-17.863 14.486-32.348 32.353-32.348s32.354 14.485 32.354 32.348z"/>
        <path fill="#FFF" d="M44.606 64.973l-12.95-12.95 4.315-4.317 8.635 8.634L64.03 36.913l4.315 4.318z"/>
    </g>
</svg>
